<mxfile host="Electron" agent="Mozilla/5.0 (Windows NT 10.0; Win64; x64) AppleWebKit/537.36 (KHTML, like Gecko) draw.io/24.7.17 Chrome/128.0.6613.36 Electron/32.0.1 Safari/537.36" version="24.7.17">
  <diagram name="Page-1" id="GLDq5bMen8jlPRQu5EKH">
    <mxGraphModel dx="2074" dy="836" grid="1" gridSize="10" guides="1" tooltips="1" connect="1" arrows="1" fold="1" page="1" pageScale="1" pageWidth="850" pageHeight="1100" math="0" shadow="0">
      <root>
        <mxCell id="0" />
        <mxCell id="1" parent="0" />
        <mxCell id="KMpIxaAEJdpiu075ooxI-2" value="AWS Cloud" style="points=[[0,0],[0.25,0],[0.5,0],[0.75,0],[1,0],[1,0.25],[1,0.5],[1,0.75],[1,1],[0.75,1],[0.5,1],[0.25,1],[0,1],[0,0.75],[0,0.5],[0,0.25]];outlineConnect=0;gradientColor=none;html=1;whiteSpace=wrap;fontSize=12;fontStyle=0;container=1;pointerEvents=0;collapsible=0;recursiveResize=0;shape=mxgraph.aws4.group;grIcon=mxgraph.aws4.group_aws_cloud_alt;strokeColor=#232F3E;fillColor=none;verticalAlign=top;align=left;spacingLeft=30;fontColor=#232F3E;dashed=0;" parent="1" vertex="1">
          <mxGeometry x="210" y="30" width="410" height="280" as="geometry" />
        </mxCell>
        <mxCell id="KMpIxaAEJdpiu075ooxI-3" value="us-east-1" style="points=[[0,0],[0.25,0],[0.5,0],[0.75,0],[1,0],[1,0.25],[1,0.5],[1,0.75],[1,1],[0.75,1],[0.5,1],[0.25,1],[0,1],[0,0.75],[0,0.5],[0,0.25]];outlineConnect=0;gradientColor=none;html=1;whiteSpace=wrap;fontSize=12;fontStyle=0;container=1;pointerEvents=0;collapsible=0;recursiveResize=0;shape=mxgraph.aws4.group;grIcon=mxgraph.aws4.group_region;strokeColor=#00A4A6;fillColor=none;verticalAlign=top;align=left;spacingLeft=30;fontColor=#147EBA;dashed=1;movable=1;resizable=1;rotatable=1;deletable=1;editable=1;locked=0;connectable=1;" parent="KMpIxaAEJdpiu075ooxI-2" vertex="1">
          <mxGeometry x="35" y="34" width="345" height="216" as="geometry" />
        </mxCell>
        <mxCell id="V8JebQ6AJZ-pBF62EPKh-1" value="{project-name}-files" style="sketch=0;points=[[0,0,0],[0.25,0,0],[0.5,0,0],[0.75,0,0],[1,0,0],[0,1,0],[0.25,1,0],[0.5,1,0],[0.75,1,0],[1,1,0],[0,0.25,0],[0,0.5,0],[0,0.75,0],[1,0.25,0],[1,0.5,0],[1,0.75,0]];outlineConnect=0;fontColor=#232F3E;fillColor=#7AA116;strokeColor=#ffffff;dashed=0;verticalLabelPosition=bottom;verticalAlign=top;align=center;html=1;fontSize=12;fontStyle=0;aspect=fixed;shape=mxgraph.aws4.resourceIcon;resIcon=mxgraph.aws4.s3;" parent="KMpIxaAEJdpiu075ooxI-3" vertex="1">
          <mxGeometry x="63.78999999999999" y="69" width="78" height="78" as="geometry" />
        </mxCell>
        <mxCell id="m9HwyAcjPF2iWNVSbzS5-1" value="{project-name}-adm-notifier" style="sketch=0;points=[[0,0,0],[0.25,0,0],[0.5,0,0],[0.75,0,0],[1,0,0],[0,1,0],[0.25,1,0],[0.5,1,0],[0.75,1,0],[1,1,0],[0,0.25,0],[0,0.5,0],[0,0.75,0],[1,0.25,0],[1,0.5,0],[1,0.75,0]];outlineConnect=0;fontColor=#232F3E;fillColor=#E7157B;strokeColor=#ffffff;dashed=0;verticalLabelPosition=bottom;verticalAlign=top;align=center;html=1;fontSize=12;fontStyle=0;aspect=fixed;shape=mxgraph.aws4.resourceIcon;resIcon=mxgraph.aws4.sns;" parent="KMpIxaAEJdpiu075ooxI-3" vertex="1">
          <mxGeometry x="225.00000000000003" y="69" width="78" height="78" as="geometry" />
        </mxCell>
        <mxCell id="m9HwyAcjPF2iWNVSbzS5-5" style="edgeStyle=orthogonalEdgeStyle;rounded=0;orthogonalLoop=1;jettySize=auto;html=1;exitX=1;exitY=0.5;exitDx=0;exitDy=0;exitPerimeter=0;entryX=0;entryY=0.5;entryDx=0;entryDy=0;entryPerimeter=0;" parent="KMpIxaAEJdpiu075ooxI-3" source="V8JebQ6AJZ-pBF62EPKh-1" target="m9HwyAcjPF2iWNVSbzS5-1" edge="1">
          <mxGeometry relative="1" as="geometry" />
        </mxCell>
        <mxCell id="V8JebQ6AJZ-pBF62EPKh-4" value="Client" style="sketch=0;outlineConnect=0;fontColor=#232F3E;gradientColor=none;strokeColor=#232F3E;fillColor=#ffffff;dashed=0;verticalLabelPosition=bottom;verticalAlign=top;align=center;html=1;fontSize=12;fontStyle=0;aspect=fixed;shape=mxgraph.aws4.resourceIcon;resIcon=mxgraph.aws4.client;" parent="KMpIxaAEJdpiu075ooxI-3" vertex="1">
          <mxGeometry x="-181.5" y="78" width="60" height="60" as="geometry" />
        </mxCell>
        <mxCell id="V8JebQ6AJZ-pBF62EPKh-5" style="edgeStyle=orthogonalEdgeStyle;rounded=0;orthogonalLoop=1;jettySize=auto;html=1;entryX=0;entryY=0.5;entryDx=0;entryDy=0;entryPerimeter=0;" parent="KMpIxaAEJdpiu075ooxI-3" source="V8JebQ6AJZ-pBF62EPKh-4" target="V8JebQ6AJZ-pBF62EPKh-1" edge="1">
          <mxGeometry relative="1" as="geometry" />
        </mxCell>
        <mxCell id="V8JebQ6AJZ-pBF62EPKh-6" value="Upload" style="edgeLabel;html=1;align=center;verticalAlign=middle;resizable=0;points=[];" parent="V8JebQ6AJZ-pBF62EPKh-5" vertex="1" connectable="0">
          <mxGeometry x="-0.3083" relative="1" as="geometry">
            <mxPoint x="-16" as="offset" />
          </mxGeometry>
        </mxCell>
        <mxCell id="m9HwyAcjPF2iWNVSbzS5-3" value="Administrator" style="sketch=0;pointerEvents=1;shadow=0;dashed=0;html=1;strokeColor=none;fillColor=#505050;labelPosition=center;verticalLabelPosition=bottom;verticalAlign=top;outlineConnect=0;align=center;shape=mxgraph.office.users.administrator;" parent="KMpIxaAEJdpiu075ooxI-3" vertex="1">
          <mxGeometry x="468.5" y="80" width="58" height="56" as="geometry" />
        </mxCell>
        <mxCell id="m9HwyAcjPF2iWNVSbzS5-2" style="edgeStyle=orthogonalEdgeStyle;rounded=0;orthogonalLoop=1;jettySize=auto;html=1;" parent="KMpIxaAEJdpiu075ooxI-3" source="m9HwyAcjPF2iWNVSbzS5-1" target="m9HwyAcjPF2iWNVSbzS5-3" edge="1">
          <mxGeometry relative="1" as="geometry">
            <mxPoint x="-135.5" y="18" as="targetPoint" />
          </mxGeometry>
        </mxCell>
        <mxCell id="m9HwyAcjPF2iWNVSbzS5-4" value="Email" style="edgeLabel;html=1;align=center;verticalAlign=middle;resizable=0;points=[];" parent="m9HwyAcjPF2iWNVSbzS5-2" vertex="1" connectable="0">
          <mxGeometry x="-0.3345" y="-3" relative="1" as="geometry">
            <mxPoint x="48" y="-3" as="offset" />
          </mxGeometry>
        </mxCell>
      </root>
    </mxGraphModel>
  </diagram>
</mxfile>
